<mxfile host="Electron" modified="2024-03-07T02:59:50.453Z" agent="Mozilla/5.0 (Macintosh; Intel Mac OS X 10_15_7) AppleWebKit/537.36 (KHTML, like Gecko) draw.io/23.1.5 Chrome/120.0.6099.109 Electron/28.1.0 Safari/537.36" etag="laSkXUf6Gpb7cK0OdfRE" version="23.1.5" type="device">
  <diagram name="第 1 页" id="7WxxI-3yv8MiAGJ4hWDf">
    <mxGraphModel dx="2074" dy="1267" grid="1" gridSize="10" guides="1" tooltips="1" connect="1" arrows="1" fold="1" page="1" pageScale="1" pageWidth="827" pageHeight="1169" math="0" shadow="0">
      <root>
        <mxCell id="0" />
        <mxCell id="1" parent="0" />
        <mxCell id="SoVPN5979x1wGRdldneU-1" value="&lt;font style=&quot;font-size: 15px;&quot;&gt;IMEM&lt;/font&gt;" style="rounded=0;whiteSpace=wrap;html=1;fillColor=#d5e8d4;strokeColor=#000000;strokeWidth=3;" vertex="1" parent="1">
          <mxGeometry x="100" y="230" width="110" height="50" as="geometry" />
        </mxCell>
        <mxCell id="SoVPN5979x1wGRdldneU-2" value="&lt;font style=&quot;font-size: 15px;&quot;&gt;PC&lt;/font&gt;" style="rounded=0;whiteSpace=wrap;html=1;strokeWidth=3;fillColor=#d5e8d4;strokeColor=#000000;" vertex="1" parent="1">
          <mxGeometry x="100" y="360" width="110" height="40" as="geometry" />
        </mxCell>
        <mxCell id="SoVPN5979x1wGRdldneU-3" value="" style="endArrow=classic;html=1;rounded=0;entryX=0.5;entryY=1;entryDx=0;entryDy=0;exitX=0.5;exitY=0;exitDx=0;exitDy=0;strokeWidth=3;" edge="1" parent="1" source="SoVPN5979x1wGRdldneU-2" target="SoVPN5979x1wGRdldneU-1">
          <mxGeometry width="50" height="50" relative="1" as="geometry">
            <mxPoint x="150" y="360" as="sourcePoint" />
            <mxPoint x="200" y="310" as="targetPoint" />
          </mxGeometry>
        </mxCell>
        <mxCell id="SoVPN5979x1wGRdldneU-4" value="&lt;font style=&quot;font-size: 15px;&quot;&gt;Reg&lt;/font&gt;" style="rounded=0;whiteSpace=wrap;html=1;fillColor=#d5e8d4;strokeColor=#000000;strokeWidth=3;" vertex="1" parent="1">
          <mxGeometry x="260" y="180" width="40" height="490" as="geometry" />
        </mxCell>
        <mxCell id="SoVPN5979x1wGRdldneU-5" value="" style="endArrow=classic;html=1;rounded=0;exitX=1;exitY=0.5;exitDx=0;exitDy=0;strokeWidth=3;" edge="1" parent="1" source="SoVPN5979x1wGRdldneU-1">
          <mxGeometry width="50" height="50" relative="1" as="geometry">
            <mxPoint x="230" y="270" as="sourcePoint" />
            <mxPoint x="260" y="440" as="targetPoint" />
            <Array as="points">
              <mxPoint x="240" y="255" />
              <mxPoint x="240" y="440" />
            </Array>
          </mxGeometry>
        </mxCell>
        <mxCell id="SoVPN5979x1wGRdldneU-6" value="&lt;font size=&quot;1&quot; style=&quot;&quot;&gt;&lt;b style=&quot;font-size: 20px;&quot;&gt;Fetch&lt;/b&gt;&lt;/font&gt;" style="text;html=1;align=center;verticalAlign=middle;whiteSpace=wrap;rounded=0;" vertex="1" parent="1">
          <mxGeometry x="150" y="110" width="100" height="50" as="geometry" />
        </mxCell>
        <mxCell id="SoVPN5979x1wGRdldneU-7" value="&lt;font style=&quot;font-size: 15px;&quot;&gt;Decoder&lt;/font&gt;" style="rounded=0;whiteSpace=wrap;html=1;fillColor=#ffe6cc;strokeColor=#000000;strokeWidth=4;" vertex="1" parent="1">
          <mxGeometry x="353.5" y="400" width="120" height="65" as="geometry" />
        </mxCell>
        <mxCell id="SoVPN5979x1wGRdldneU-8" value="" style="endArrow=classic;html=1;rounded=0;strokeWidth=3;" edge="1" parent="1">
          <mxGeometry width="50" height="50" relative="1" as="geometry">
            <mxPoint x="300" y="432" as="sourcePoint" />
            <mxPoint x="350" y="432" as="targetPoint" />
          </mxGeometry>
        </mxCell>
        <mxCell id="SoVPN5979x1wGRdldneU-9" value="&lt;font style=&quot;font-size: 15px;&quot;&gt;Reg&lt;/font&gt;" style="rounded=0;whiteSpace=wrap;html=1;fillColor=#ffe6cc;strokeColor=#000000;strokeWidth=3;" vertex="1" parent="1">
          <mxGeometry x="520" y="180" width="40" height="490" as="geometry" />
        </mxCell>
        <mxCell id="SoVPN5979x1wGRdldneU-10" value="&lt;span style=&quot;font-size: 20px;&quot;&gt;&lt;b&gt;Decode&lt;/b&gt;&lt;/span&gt;" style="text;html=1;align=center;verticalAlign=middle;whiteSpace=wrap;rounded=0;" vertex="1" parent="1">
          <mxGeometry x="364" y="110" width="100" height="50" as="geometry" />
        </mxCell>
        <mxCell id="SoVPN5979x1wGRdldneU-13" value="" style="endArrow=classic;html=1;rounded=0;strokeWidth=3;" edge="1" parent="1">
          <mxGeometry width="50" height="50" relative="1" as="geometry">
            <mxPoint x="473.5" y="432" as="sourcePoint" />
            <mxPoint x="520" y="432" as="targetPoint" />
          </mxGeometry>
        </mxCell>
        <mxCell id="SoVPN5979x1wGRdldneU-14" value="&lt;span style=&quot;font-size: 15px;&quot;&gt;ARF&lt;/span&gt;" style="rounded=0;whiteSpace=wrap;html=1;fillColor=#fff2cc;strokeColor=#000000;strokeWidth=3;" vertex="1" parent="1">
          <mxGeometry x="610" y="220" width="110" height="50" as="geometry" />
        </mxCell>
        <mxCell id="SoVPN5979x1wGRdldneU-16" value="&lt;span style=&quot;font-size: 15px;&quot;&gt;RRF&lt;/span&gt;" style="rounded=0;whiteSpace=wrap;html=1;fillColor=#fff2cc;strokeColor=#000000;strokeWidth=3;" vertex="1" parent="1">
          <mxGeometry x="610" y="340" width="110" height="50" as="geometry" />
        </mxCell>
        <mxCell id="SoVPN5979x1wGRdldneU-17" value="" style="endArrow=classic;html=1;rounded=0;strokeWidth=3;" edge="1" parent="1">
          <mxGeometry width="50" height="50" relative="1" as="geometry">
            <mxPoint x="560" y="244.5" as="sourcePoint" />
            <mxPoint x="610" y="244.5" as="targetPoint" />
          </mxGeometry>
        </mxCell>
        <mxCell id="SoVPN5979x1wGRdldneU-18" value="" style="rounded=0;whiteSpace=wrap;html=1;fillColor=#fff2cc;strokeColor=#000000;strokeWidth=3;" vertex="1" parent="1">
          <mxGeometry x="770" y="180" width="40" height="490" as="geometry" />
        </mxCell>
        <mxCell id="SoVPN5979x1wGRdldneU-20" value="&lt;font style=&quot;font-size: 15px;&quot;&gt;SourceManager&lt;/font&gt;" style="text;html=1;align=center;verticalAlign=middle;whiteSpace=wrap;rounded=0;rotation=90;" vertex="1" parent="1">
          <mxGeometry x="760" y="400" width="60" height="30" as="geometry" />
        </mxCell>
        <mxCell id="SoVPN5979x1wGRdldneU-23" value="" style="endArrow=classic;html=1;rounded=0;strokeWidth=3;" edge="1" parent="1">
          <mxGeometry width="50" height="50" relative="1" as="geometry">
            <mxPoint x="720" y="244.5" as="sourcePoint" />
            <mxPoint x="770" y="244.5" as="targetPoint" />
          </mxGeometry>
        </mxCell>
        <mxCell id="SoVPN5979x1wGRdldneU-24" value="" style="endArrow=classic;html=1;rounded=0;entryX=0;entryY=0.5;entryDx=0;entryDy=0;strokeWidth=3;endSize=6;" edge="1" parent="1" target="SoVPN5979x1wGRdldneU-16">
          <mxGeometry width="50" height="50" relative="1" as="geometry">
            <mxPoint x="740" y="245" as="sourcePoint" />
            <mxPoint x="580" y="370" as="targetPoint" />
            <Array as="points">
              <mxPoint x="740" y="310" />
              <mxPoint x="580" y="310" />
              <mxPoint x="580" y="365" />
            </Array>
          </mxGeometry>
        </mxCell>
        <mxCell id="SoVPN5979x1wGRdldneU-25" value="&lt;span style=&quot;font-size: 20px;&quot;&gt;&lt;b&gt;Rename&lt;/b&gt;&lt;/span&gt;" style="text;html=1;align=center;verticalAlign=middle;whiteSpace=wrap;rounded=0;" vertex="1" parent="1">
          <mxGeometry x="620" y="110" width="100" height="50" as="geometry" />
        </mxCell>
        <mxCell id="SoVPN5979x1wGRdldneU-27" value="" style="endArrow=classic;html=1;rounded=0;strokeWidth=3;" edge="1" parent="1">
          <mxGeometry width="50" height="50" relative="1" as="geometry">
            <mxPoint x="720" y="364.5" as="sourcePoint" />
            <mxPoint x="770" y="364.5" as="targetPoint" />
          </mxGeometry>
        </mxCell>
        <mxCell id="SoVPN5979x1wGRdldneU-28" value="" style="rounded=0;whiteSpace=wrap;html=1;fillColor=#e1d5e7;strokeColor=#000000;strokeWidth=3;" vertex="1" parent="1">
          <mxGeometry x="850" y="200" width="60" height="120" as="geometry" />
        </mxCell>
        <mxCell id="SoVPN5979x1wGRdldneU-36" value="&lt;span style=&quot;font-size: 15px;&quot;&gt;Allocate Unit&lt;/span&gt;" style="text;html=1;align=center;verticalAlign=middle;whiteSpace=wrap;rounded=0;rotation=90;" vertex="1" parent="1">
          <mxGeometry x="850" y="250" width="60" height="30" as="geometry" />
        </mxCell>
        <mxCell id="SoVPN5979x1wGRdldneU-37" value="" style="rounded=0;whiteSpace=wrap;html=1;fillColor=#e1d5e7;strokeColor=#000000;strokeWidth=3;" vertex="1" parent="1">
          <mxGeometry x="850" y="372.5" width="60" height="120" as="geometry" />
        </mxCell>
        <mxCell id="SoVPN5979x1wGRdldneU-38" value="&lt;span style=&quot;font-size: 15px;&quot;&gt;Allocate Unit&lt;/span&gt;" style="text;html=1;align=center;verticalAlign=middle;whiteSpace=wrap;rounded=0;rotation=90;" vertex="1" parent="1">
          <mxGeometry x="850" y="420" width="60" height="30" as="geometry" />
        </mxCell>
        <mxCell id="SoVPN5979x1wGRdldneU-40" style="edgeStyle=none;rounded=0;orthogonalLoop=1;jettySize=auto;html=1;exitX=0.25;exitY=0;exitDx=0;exitDy=0;entryX=0;entryY=0;entryDx=0;entryDy=0;strokeColor=default;align=center;verticalAlign=middle;fontFamily=Helvetica;fontSize=11;fontColor=default;labelBackgroundColor=default;endArrow=classic;" edge="1" parent="1" source="SoVPN5979x1wGRdldneU-38" target="SoVPN5979x1wGRdldneU-38">
          <mxGeometry relative="1" as="geometry" />
        </mxCell>
        <mxCell id="SoVPN5979x1wGRdldneU-43" value="" style="rounded=0;whiteSpace=wrap;html=1;fillColor=#e1d5e7;strokeColor=#000000;strokeWidth=3;" vertex="1" parent="1">
          <mxGeometry x="960" y="200" width="60" height="120" as="geometry" />
        </mxCell>
        <mxCell id="SoVPN5979x1wGRdldneU-44" value="&lt;span style=&quot;font-size: 15px;&quot;&gt;ALU RS&lt;/span&gt;" style="text;html=1;align=center;verticalAlign=middle;whiteSpace=wrap;rounded=0;rotation=90;" vertex="1" parent="1">
          <mxGeometry x="960" y="245" width="60" height="30" as="geometry" />
        </mxCell>
        <mxCell id="SoVPN5979x1wGRdldneU-46" value="" style="rounded=0;whiteSpace=wrap;html=1;fillColor=#e1d5e7;strokeColor=#000000;strokeWidth=3;" vertex="1" parent="1">
          <mxGeometry x="960" y="375" width="60" height="120" as="geometry" />
        </mxCell>
        <mxCell id="SoVPN5979x1wGRdldneU-47" value="&lt;span style=&quot;font-size: 15px;&quot;&gt;Mem RS&lt;/span&gt;" style="text;html=1;align=center;verticalAlign=middle;whiteSpace=wrap;rounded=0;rotation=90;" vertex="1" parent="1">
          <mxGeometry x="955" y="425" width="70" height="30" as="geometry" />
        </mxCell>
        <mxCell id="SoVPN5979x1wGRdldneU-56" value="" style="endArrow=classic;html=1;rounded=0;strokeWidth=3;entryX=0;entryY=0.375;entryDx=0;entryDy=0;entryPerimeter=0;" edge="1" parent="1" target="SoVPN5979x1wGRdldneU-28">
          <mxGeometry width="50" height="50" relative="1" as="geometry">
            <mxPoint x="810" y="244" as="sourcePoint" />
            <mxPoint x="860" y="244" as="targetPoint" />
          </mxGeometry>
        </mxCell>
        <mxCell id="SoVPN5979x1wGRdldneU-58" value="" style="endArrow=classic;html=1;rounded=0;strokeWidth=3;entryX=0;entryY=0.375;entryDx=0;entryDy=0;entryPerimeter=0;" edge="1" parent="1">
          <mxGeometry width="50" height="50" relative="1" as="geometry">
            <mxPoint x="810" y="429" as="sourcePoint" />
            <mxPoint x="850" y="430" as="targetPoint" />
          </mxGeometry>
        </mxCell>
        <mxCell id="SoVPN5979x1wGRdldneU-59" value="" style="endArrow=classic;html=1;rounded=0;strokeWidth=3;" edge="1" parent="1">
          <mxGeometry width="50" height="50" relative="1" as="geometry">
            <mxPoint x="910" y="250" as="sourcePoint" />
            <mxPoint x="960" y="250" as="targetPoint" />
          </mxGeometry>
        </mxCell>
        <mxCell id="SoVPN5979x1wGRdldneU-60" value="" style="endArrow=classic;html=1;rounded=0;strokeWidth=3;" edge="1" parent="1">
          <mxGeometry width="50" height="50" relative="1" as="geometry">
            <mxPoint x="910" y="433.5" as="sourcePoint" />
            <mxPoint x="960" y="434" as="targetPoint" />
          </mxGeometry>
        </mxCell>
        <mxCell id="SoVPN5979x1wGRdldneU-62" value="&lt;span style=&quot;font-size: 20px;&quot;&gt;&lt;b&gt;Select and Wakeup&lt;/b&gt;&lt;/span&gt;" style="text;html=1;align=center;verticalAlign=middle;whiteSpace=wrap;rounded=0;" vertex="1" parent="1">
          <mxGeometry x="860" y="110" width="140" height="50" as="geometry" />
        </mxCell>
        <mxCell id="SoVPN5979x1wGRdldneU-63" value="" style="rounded=0;whiteSpace=wrap;html=1;fillColor=#e1d5e7;strokeColor=#000000;strokeWidth=3;" vertex="1" parent="1">
          <mxGeometry x="1070" y="200" width="60" height="120" as="geometry" />
        </mxCell>
        <mxCell id="SoVPN5979x1wGRdldneU-64" value="" style="rounded=0;whiteSpace=wrap;html=1;fillColor=#e1d5e7;strokeColor=#000000;strokeWidth=3;" vertex="1" parent="1">
          <mxGeometry x="1070" y="375" width="60" height="120" as="geometry" />
        </mxCell>
        <mxCell id="SoVPN5979x1wGRdldneU-65" value="&lt;span style=&quot;font-size: 15px;&quot;&gt;Issue Unit&lt;/span&gt;" style="text;html=1;align=center;verticalAlign=middle;whiteSpace=wrap;rounded=0;rotation=90;" vertex="1" parent="1">
          <mxGeometry x="1070" y="240" width="60" height="30" as="geometry" />
        </mxCell>
        <mxCell id="SoVPN5979x1wGRdldneU-66" value="&lt;span style=&quot;font-size: 15px;&quot;&gt;Issue Unit&lt;/span&gt;" style="text;html=1;align=center;verticalAlign=middle;whiteSpace=wrap;rounded=0;rotation=90;" vertex="1" parent="1">
          <mxGeometry x="1070" y="420" width="60" height="30" as="geometry" />
        </mxCell>
        <mxCell id="SoVPN5979x1wGRdldneU-67" value="" style="endArrow=classic;html=1;rounded=0;strokeWidth=3;" edge="1" parent="1">
          <mxGeometry width="50" height="50" relative="1" as="geometry">
            <mxPoint x="1020" y="250" as="sourcePoint" />
            <mxPoint x="1070" y="250" as="targetPoint" />
          </mxGeometry>
        </mxCell>
        <mxCell id="SoVPN5979x1wGRdldneU-68" value="" style="endArrow=classic;html=1;rounded=0;strokeWidth=3;" edge="1" parent="1">
          <mxGeometry width="50" height="50" relative="1" as="geometry">
            <mxPoint x="1020" y="434.5" as="sourcePoint" />
            <mxPoint x="1070" y="434.5" as="targetPoint" />
          </mxGeometry>
        </mxCell>
        <mxCell id="SoVPN5979x1wGRdldneU-69" value="" style="rounded=0;whiteSpace=wrap;html=1;fillColor=#dae8fc;strokeColor=#000000;strokeWidth=3;" vertex="1" parent="1">
          <mxGeometry x="1200" y="200" width="60" height="120" as="geometry" />
        </mxCell>
        <mxCell id="SoVPN5979x1wGRdldneU-70" value="&lt;span style=&quot;font-size: 15px;&quot;&gt;ALU ExUnit&lt;/span&gt;" style="text;html=1;align=center;verticalAlign=middle;whiteSpace=wrap;rounded=0;rotation=90;" vertex="1" parent="1">
          <mxGeometry x="1200" y="250" width="60" height="30" as="geometry" />
        </mxCell>
        <mxCell id="SoVPN5979x1wGRdldneU-75" value="&lt;span style=&quot;font-size: 15px;&quot;&gt;Store Buffer&lt;/span&gt;" style="rounded=0;whiteSpace=wrap;html=1;fillColor=#dae8fc;strokeColor=#000000;strokeWidth=3;" vertex="1" parent="1">
          <mxGeometry x="1185" y="490" width="110" height="50" as="geometry" />
        </mxCell>
        <mxCell id="SoVPN5979x1wGRdldneU-76" value="&lt;span style=&quot;font-size: 15px;&quot;&gt;LDST ExUnit&lt;/span&gt;" style="rounded=0;whiteSpace=wrap;html=1;fillColor=#dae8fc;strokeColor=#000000;strokeWidth=3;" vertex="1" parent="1">
          <mxGeometry x="1185" y="410" width="110" height="50" as="geometry" />
        </mxCell>
        <mxCell id="SoVPN5979x1wGRdldneU-77" value="&lt;span style=&quot;font-size: 15px;&quot;&gt;DMEM&lt;/span&gt;" style="rounded=0;whiteSpace=wrap;html=1;fillColor=#dae8fc;strokeColor=#000000;strokeWidth=3;" vertex="1" parent="1">
          <mxGeometry x="1185" y="340" width="110" height="50" as="geometry" />
        </mxCell>
        <mxCell id="SoVPN5979x1wGRdldneU-79" value="" style="endArrow=classic;html=1;rounded=0;strokeWidth=3;entryX=0;entryY=0.425;entryDx=0;entryDy=0;entryPerimeter=0;" edge="1" parent="1" target="SoVPN5979x1wGRdldneU-69">
          <mxGeometry width="50" height="50" relative="1" as="geometry">
            <mxPoint x="1130" y="250" as="sourcePoint" />
            <mxPoint x="1180" y="250" as="targetPoint" />
          </mxGeometry>
        </mxCell>
        <mxCell id="SoVPN5979x1wGRdldneU-80" value="" style="endArrow=classic;html=1;rounded=0;strokeWidth=3;entryX=0;entryY=0.5;entryDx=0;entryDy=0;" edge="1" parent="1" target="SoVPN5979x1wGRdldneU-76">
          <mxGeometry width="50" height="50" relative="1" as="geometry">
            <mxPoint x="1130" y="434.5" as="sourcePoint" />
            <mxPoint x="1200" y="435.5" as="targetPoint" />
          </mxGeometry>
        </mxCell>
        <mxCell id="SoVPN5979x1wGRdldneU-81" value="" style="endArrow=classic;html=1;rounded=0;strokeColor=default;align=center;verticalAlign=middle;fontFamily=Helvetica;fontSize=11;fontColor=default;labelBackgroundColor=default;entryX=0.5;entryY=0;entryDx=0;entryDy=0;strokeWidth=3;" edge="1" parent="1" target="SoVPN5979x1wGRdldneU-76">
          <mxGeometry width="50" height="50" relative="1" as="geometry">
            <mxPoint x="1240" y="390" as="sourcePoint" />
            <mxPoint x="1290" y="340" as="targetPoint" />
          </mxGeometry>
        </mxCell>
        <mxCell id="SoVPN5979x1wGRdldneU-83" value="" style="endArrow=classic;html=1;rounded=0;strokeColor=default;align=center;verticalAlign=middle;fontFamily=Helvetica;fontSize=11;fontColor=default;labelBackgroundColor=default;exitX=0.5;exitY=1;exitDx=0;exitDy=0;entryX=0.5;entryY=0;entryDx=0;entryDy=0;strokeWidth=4;" edge="1" parent="1" source="SoVPN5979x1wGRdldneU-76" target="SoVPN5979x1wGRdldneU-75">
          <mxGeometry width="50" height="50" relative="1" as="geometry">
            <mxPoint x="1240" y="500" as="sourcePoint" />
            <mxPoint x="1290" y="450" as="targetPoint" />
          </mxGeometry>
        </mxCell>
        <mxCell id="SoVPN5979x1wGRdldneU-85" value="" style="endArrow=classic;html=1;rounded=0;strokeColor=default;align=center;verticalAlign=middle;fontFamily=Helvetica;fontSize=11;fontColor=default;labelBackgroundColor=default;entryX=1;entryY=0.5;entryDx=0;entryDy=0;strokeWidth=3;" edge="1" parent="1" target="SoVPN5979x1wGRdldneU-77">
          <mxGeometry width="50" height="50" relative="1" as="geometry">
            <mxPoint x="1300" y="520" as="sourcePoint" />
            <mxPoint x="1360" y="360" as="targetPoint" />
            <Array as="points">
              <mxPoint x="1360" y="520" />
              <mxPoint x="1360" y="365" />
            </Array>
          </mxGeometry>
        </mxCell>
        <mxCell id="SoVPN5979x1wGRdldneU-86" value="&lt;span style=&quot;font-size: 20px;&quot;&gt;&lt;b&gt;Execute&lt;/b&gt;&lt;/span&gt;" style="text;html=1;align=center;verticalAlign=middle;whiteSpace=wrap;rounded=0;" vertex="1" parent="1">
          <mxGeometry x="1170" y="110" width="140" height="50" as="geometry" />
        </mxCell>
        <mxCell id="SoVPN5979x1wGRdldneU-95" style="edgeStyle=none;rounded=0;orthogonalLoop=1;jettySize=auto;html=1;exitX=0.5;exitY=0;exitDx=0;exitDy=0;strokeColor=default;align=center;verticalAlign=middle;fontFamily=Helvetica;fontSize=11;fontColor=default;labelBackgroundColor=default;endArrow=classic;" edge="1" parent="1" source="SoVPN5979x1wGRdldneU-87">
          <mxGeometry relative="1" as="geometry">
            <mxPoint x="1450" y="190" as="targetPoint" />
          </mxGeometry>
        </mxCell>
        <mxCell id="SoVPN5979x1wGRdldneU-87" value="" style="rounded=0;whiteSpace=wrap;html=1;fillColor=#ffcc99;strokeColor=#36393d;strokeWidth=3;" vertex="1" parent="1">
          <mxGeometry x="1430" y="180" width="40" height="505" as="geometry" />
        </mxCell>
        <mxCell id="SoVPN5979x1wGRdldneU-89" value="&lt;span style=&quot;font-size: 15px;&quot;&gt;Reorder Buffer&lt;/span&gt;" style="text;html=1;align=center;verticalAlign=middle;whiteSpace=wrap;rounded=0;rotation=90;" vertex="1" parent="1">
          <mxGeometry x="1385" y="400" width="130" height="30" as="geometry" />
        </mxCell>
        <mxCell id="SoVPN5979x1wGRdldneU-90" value="" style="endArrow=classic;html=1;rounded=0;strokeWidth=3;entryX=-0.05;entryY=0.152;entryDx=0;entryDy=0;entryPerimeter=0;" edge="1" parent="1" target="SoVPN5979x1wGRdldneU-87">
          <mxGeometry width="50" height="50" relative="1" as="geometry">
            <mxPoint x="1260" y="254.5" as="sourcePoint" />
            <mxPoint x="1370" y="190" as="targetPoint" />
            <Array as="points" />
          </mxGeometry>
        </mxCell>
        <mxCell id="SoVPN5979x1wGRdldneU-91" value="" style="endArrow=classic;html=1;rounded=0;strokeWidth=3;" edge="1" parent="1">
          <mxGeometry width="50" height="50" relative="1" as="geometry">
            <mxPoint x="1295" y="439.5" as="sourcePoint" />
            <mxPoint x="1430" y="440" as="targetPoint" />
          </mxGeometry>
        </mxCell>
        <mxCell id="SoVPN5979x1wGRdldneU-92" value="&lt;span style=&quot;font-size: 20px;&quot;&gt;&lt;b&gt;Commit&lt;/b&gt;&lt;/span&gt;" style="text;html=1;align=center;verticalAlign=middle;whiteSpace=wrap;rounded=0;" vertex="1" parent="1">
          <mxGeometry x="1380" y="110" width="140" height="50" as="geometry" />
        </mxCell>
        <mxCell id="SoVPN5979x1wGRdldneU-93" value="" style="endArrow=classic;html=1;rounded=0;strokeColor=default;align=center;verticalAlign=middle;fontFamily=Helvetica;fontSize=11;fontColor=default;labelBackgroundColor=default;exitX=0.5;exitY=0;exitDx=0;exitDy=0;entryX=0.5;entryY=0;entryDx=0;entryDy=0;strokeWidth=3;" edge="1" parent="1" source="SoVPN5979x1wGRdldneU-87" target="SoVPN5979x1wGRdldneU-14">
          <mxGeometry width="50" height="50" relative="1" as="geometry">
            <mxPoint x="1450" y="190" as="sourcePoint" />
            <mxPoint x="660" y="170" as="targetPoint" />
            <Array as="points">
              <mxPoint x="1450" y="170" />
              <mxPoint x="665" y="170" />
            </Array>
          </mxGeometry>
        </mxCell>
      </root>
    </mxGraphModel>
  </diagram>
</mxfile>
